# xmcd CD database file
#
# Track frame offsets:
#	150
#	10233
#	31083
#	31533
#	40008
#	48075
#	67293
#	77820
#	96620
#	105738
#	113655
#	127005
#	145879
#	153276
#	157446
#	168706
#
# Disc length: 2258 seconds
#
# Revision: 2
# Processed by: cddbd v1.5.1PL0 Copyright (c) Steve Scherf et al.
# Submitted via: CDex 1.51
#
DISCID=d508d010
DTITLE=Zuntata - Darius Gaiden (JP Saturn CD)
DYEAR=1994
DGENRE=Game
TTITLE0=DATA
TTITLE1=VISIONNERZ
TTITLE2=(Punctuation)
TTITLE3=Burst Out
TTITLE4=INDUCTION
TTITLE5=E.E.G.
TTITLE6=AXON
TTITLE7=Touei
TTITLE8=FAKE
TTITLE9=Singing in the BRAIN
TTITLE10=Tranquilizers
TTITLE11=SELF
TTITLE12=Refrain
TTITLE13=name
TTITLE14=end titles (Touei)
TTITLE15=over
EXTD=YEAR: 1994
EXTT0=
EXTT1=
EXTT2=
EXTT3=
EXTT4=
EXTT5=
EXTT6=
EXTT7=
EXTT8=
EXTT9=
EXTT10=
EXTT11=
EXTT12=
EXTT13=
EXTT14=
EXTT15=
PLAYORDER=
